<svg width="1518" height="580" viewBox="0 0 1518 580" fill="none" xmlns="http://www.w3.org/2000/svg">
<g clip-path="url(#clip0_18330_1328)">
<path d="M1128.5 155.4C1137.63 144.19 1145.59 133.07 1157.91 124.94C1196.69 99.3403 1262.46 111.64 1292.33 146.33C1294.89 149.3 1305.09 165.65 1306.26 165.93C1307.58 166.25 1307.91 165.15 1308.5 164.35C1317.98 151.43 1323.54 143.14 1337.08 133.54C1371.38 109.2 1408.44 105.61 1447.83 120.21C1491.82 136.52 1513.66 179.84 1516.62 224.79C1520.46 282.99 1513.63 345.32 1516.63 403.96C1515.69 413.33 1509.12 419.82 1499.85 420.7C1485.89 422.03 1475.36 419.82 1472.93 404.43C1469.02 345.08 1476.65 281.76 1472.54 222.87C1466.47 135.88 1340.09 131.59 1323.26 215.49C1320.35 278.65 1323.13 342.26 1321.83 405.59C1319.14 419.94 1306.71 422.33 1293.88 420.58C1281.63 418.91 1279.58 408.63 1278.9 398.2C1275.2 341.26 1282.87 279.71 1278.98 222.87C1272.78 132.27 1136.01 132.48 1128.47 222.87L1128.27 405.59C1125.64 419.89 1114 422.1 1101.19 420.67C1090.57 419.48 1085.8 409.89 1085.35 400.11L1085.4 141.52C1086.43 133.65 1087.65 125.01 1095.25 120.72C1104.41 115.55 1120.28 117.57 1125.37 127.41C1125.98 128.59 1128.51 135.02 1128.51 135.77V155.4H1128.5Z" fill="white"/>
<path d="M692.51 369.91V557.13C692.51 557.64 691.36 563.35 691.09 564.33C687.39 577.81 673.06 583.27 660.67 577.46C652.42 573.59 650.17 564.64 649.35 556.21L649.4 141.52C650.52 133.55 653.7 125.26 662.01 122.52C673.7 118.67 687.41 122.44 691.09 135.27C691.35 136.17 692.51 142 692.51 142.47V173.59C694.75 174.17 694.11 173.06 694.71 172.37C699.83 166.41 704.52 159.07 710.19 153.43C801.53 62.6002 944.46 140.62 951.21 260.26C957.01 363 865.84 455.43 761.7 422.85C733.27 413.95 708.65 394.67 692.5 369.91H692.51ZM875.19 189.25C825.91 139.39 741.59 151.43 707.67 212.21C660.39 296.96 727.43 408.07 827.25 382.48C910.28 361.2 933.26 248.01 875.18 189.25H875.19Z" fill="white"/>
<path d="M1010.42 118.33C1022 116.97 1031.31 120.89 1035.14 132.35C1038.28 221.04 1035.64 310.24 1036.49 399.12C1035.65 409.79 1031.81 419.58 1019.77 420.72C1007.63 421.87 997.77 420.05 993.85 407.29C991.46 316.31 991.52 224.34 993.82 133.35C996.2 124.4 1001.08 119.44 1010.42 118.35V118.33Z" fill="white"/>
<path d="M1009.43 0.490452C1054.2 -6.50955 1055.27 63.6705 1011.22 58.5705C978.99 54.8405 980.04 5.08045 1009.43 0.490452Z" fill="white"/>
<path d="M294.86 371.82C296.78 369.87 286.07 355.03 284.5 352.01C215.16 219.11 330.3 66.6595 476.96 96.4595C552.4 111.79 612.34 179.1 616.81 256.43C625.32 403.5 468.78 494.26 344.25 417.74L140.07 417.83C69.2201 412.72 13.5001 361.41 1.89013 291.62C-11.7199 209.79 49.9901 130.83 132.57 122C145.63 120.6 185.06 118.87 196.18 122.34C219.16 129.51 216.45 165.15 189.93 167.83C156.05 171.26 134.27 161.67 101.02 179.53C10.1201 228.35 40.7801 364.44 143.96 371.81H294.87L294.86 371.82ZM570.69 269.16C570.69 197.38 512.47 139.19 440.65 139.19C368.83 139.19 310.61 197.38 310.61 269.16C310.61 340.94 368.83 399.13 440.65 399.13C512.47 399.13 570.69 340.94 570.69 269.16Z" fill="#FF6F00"/>
<path d="M441.17 314.17C464.3 314.17 483.05 295.433 483.05 272.32C483.05 249.207 464.3 230.47 441.17 230.47C418.04 230.47 399.29 249.207 399.29 272.32C399.29 295.433 418.04 314.17 441.17 314.17Z" fill="#FF6F00"/>
</g>
<defs>
<clipPath id="clip0_18330_1328">
<rect width="1517.81" height="579.77" fill="white"/>
</clipPath>
</defs>
</svg>
