<!--   https://icon-sets.iconify.design/ph/   -   https://www.svgrepo.com/   -   https://jakearchibald.github.io/svgomg/   -->

<svg xmlns="http://www.w3.org/2000/svg" style="display:none">


    <symbol id="mastodon" viewBox="0 0 256 256">
        <path fill="currentColor" d="M184 34H72a38 38 0 0 0-38 38v120a38 38 0 0 0 38 38h88a6 6 0 0 0 0-12H72a26 26 0 0 1-26-26v-10h138a38 38 0 0 0 38-38V72a38 38 0 0 0-38-38m26 110a26 26 0 0 1-26 26H46V72a26 26 0 0 1 26-26h112a26 26 0 0 1 26 26Zm-28-40v32a6 6 0 0 1-12 0v-32a18 18 0 0 0-36 0v32a6 6 0 0 1-12 0v-32a18 18 0 0 0-36 0v32a6 6 0 0 1-12 0v-32a30 30 0 0 1 54-18a30 30 0 0 1 54 18" />
    </symbol>

    <symbol id="ph--mastodon-logo-fill" viewBox="0 0 256 256">
        <path fill="currentColor" d="M184 32H72a40 40 0 0 0-40 40v120a40 40 0 0 0 40 40h88a8 8 0 0 0 0-16H72a24 24 0 0 1-24-24v-8h136a40 40 0 0 0 40-40V72a40 40 0 0 0-40-40m0 104a8 8 0 0 1-16 0v-32a16 16 0 0 0-32 0v32a8 8 0 0 1-16 0v-32a16 16 0 0 0-32 0v32a8 8 0 0 1-16 0v-32a32 32 0 0 1 56-21.13A32 32 0 0 1 184 104Z" />
    </symbol>

    <symbol id="youtube" viewBox="0 0 256 256">
        <path fill="currentColor" d="m163.33 123l-48-32a6 6 0 0 0-9.33 5v64a6 6 0 0 0 9.33 5l48-32a6 6 0 0 0 0-10M118 148.79v-41.58L149.18 128ZM232.4 70a22 22 0 0 0-13.28-15C185 41.79 130.27 42 128 42s-57-.21-91.16 13A22 22 0 0 0 23.6 70c-2.55 9.89-5.6 28-5.6 58s3.05 48.11 5.6 58a22 22 0 0 0 13.28 15C71 214.21 125.72 214 128 214h.71c6.91 0 58-.44 90.45-13a22 22 0 0 0 13.28-15c2.55-9.87 5.6-27.93 5.6-58S235 79.89 232.4 70m-11.62 113a10 10 0 0 1-6 6.86c-32 12.33-86.2 12.14-86.78 12.14s-54.71.2-86.75-12.17a10 10 0 0 1-6-6.86C32.84 173.78 30 156.78 30 128s2.84-45.78 5.22-55a10 10 0 0 1 6-6.86C72.06 54.26 123.53 54 127.76 54h.24c.54 0 54.71-.2 86.75 12.17a10 10 0 0 1 6 6.86c2.38 9.19 5.22 26.19 5.22 55s-2.81 45.75-5.19 54.97" />
    </symbol>

    <symbol id="website" viewBox="0 0 256 256">
        <path fill="currentColor" d="M128 26a102 102 0 1 0 102 102A102.12 102.12 0 0 0 128 26m89.8 96h-43.91c-1.54-40.77-18.48-68.23-30.43-82.67A90.19 90.19 0 0 1 217.8 122M128 215.83a110 110 0 0 1-15.19-19.45A128.37 128.37 0 0 1 94.13 134h67.74a128.37 128.37 0 0 1-18.68 62.38A110 110 0 0 1 128 215.83M94.13 122a128.37 128.37 0 0 1 18.68-62.38A110 110 0 0 1 128 40.17a110 110 0 0 1 15.19 19.45A128.37 128.37 0 0 1 161.87 122Zm18.41-82.67c-12 14.44-28.89 41.9-30.43 82.67H38.2a90.19 90.19 0 0 1 74.34-82.67M38.2 134h43.91c1.54 40.77 18.48 68.23 30.43 82.67A90.19 90.19 0 0 1 38.2 134m105.26 82.67c11.95-14.44 28.89-41.9 30.43-82.67h43.91a90.19 90.19 0 0 1-74.34 82.67" />
    </symbol>

    <symbol id="linkedin" viewBox="0 0 256 256">
        <path fill="currentColor" d="M216 26H40a14 14 0 0 0-14 14v176a14 14 0 0 0 14 14h176a14 14 0 0 0 14-14V40a14 14 0 0 0-14-14m2 190a2 2 0 0 1-2 2H40a2 2 0 0 1-2-2V40a2 2 0 0 1 2-2h176a2 2 0 0 1 2 2ZM94 112v64a6 6 0 0 1-12 0v-64a6 6 0 0 1 12 0m88 28v36a6 6 0 0 1-12 0v-36a22 22 0 0 0-44 0v36a6 6 0 0 1-12 0v-64a6 6 0 0 1 12 0v2.11A34 34 0 0 1 182 140M98 84a10 10 0 1 1-10-10a10 10 0 0 1 10 10" />
    </symbol>

    <symbol id="facebook" viewBox="0 0 256 256">
        <path fill="currentColor" d="M128 26a102 102 0 1 0 102 102A102.12 102.12 0 0 0 128 26m6 191.8V150h26a6 6 0 0 0 0-12h-26v-26a18 18 0 0 1 18-18h16a6 6 0 0 0 0-12h-16a30 30 0 0 0-30 30v26H96a6 6 0 0 0 0 12h26v67.8a90 90 0 1 1 12 0" />
    </symbol>

   <symbol id="bluesky" viewBox="0 0 256 256">
        <path fill="currentColor" d="M229.333 56.78c0-7.384-1.653-11.321-3.432-13.353-1.651-1.884-4.079-2.887-7.656-2.834-7.171.107-16.791 4.493-25.005 10.258l-1.625 1.169c-11.68 8.655-24.032 21.955-34.735 35.695-10.69 13.724-19.459 27.529-24.083 36.972a5.338 5.338 0 0 1-4.797 2.98 5.338 5.338 0 0 1-4.797-2.98c-4.624-9.443-13.393-23.249-24.083-36.972-10.034-12.88-21.517-25.374-32.537-34.019l-2.198-1.676C55.843 45.689 45.41 40.712 37.76 40.598c-3.578-.053-6.01.944-7.661 2.83-1.78 2.03-3.432 5.968-3.432 13.351 0 2.936.905 16.178 2.12 29.922.6 6.808 1.265 13.631 1.916 19.213.674 5.777 1.279 9.736 1.688 11.174h.005l.672 2.147c3.603 10.46 10.837 17.064 19.87 20.811 9.198 3.816 20.351 4.673 31.291 3.156l2.188-.331.541-.068c2.697-.177 5.143 1.7 5.605 4.403.49 2.884-1.466 5.621-4.37 6.109-21.072 3.541-32.438 10.922-36.427 18.561-3.647 6.985-2.148 16.546 8.932 27.765l2 1.976c9.874 9.47 17.8 13.063 23.911 13.683 6.309.639 11.693-1.798 16.5-6.265 4.9-4.552 8.9-10.962 12.032-17.392 3.105-6.375 5.191-12.415 6.448-16.057v-.006l.63-1.795c.202-.563.39-1.072.557-1.453a7.59 7.59 0 0 1 .51-.973c.116-.185.38-.592.803-1.014a5.429 5.429 0 0 1 3.5-1.578 6.153 6.153 0 0 1 .812 0 5.414 5.414 0 0 1 3.505 1.578c.424.423.691.824.808 1.009.249.398.419.777.505.973.167.38.36.89.562 1.453l.63 1.79v.01l1.105 3.151c1.262 3.534 3.015 8.126 5.343 12.907 3.132 6.431 7.131 12.844 12.032 17.397 4.807 4.467 10.192 6.904 16.5 6.265 6.518-.662 15.101-4.709 25.911-15.659l1.964-2.085c9.281-10.323 10.387-19.132 6.968-25.68-3.739-7.161-13.961-14.095-32.588-17.852l-3.839-.709c-2.903-.488-4.859-3.22-4.369-6.104.46-2.704 2.906-4.585 5.604-4.408l.541.068 2.183.331c10.939 1.516 22.096.66 31.297-3.156 9.635-3.996 17.223-11.248 20.541-22.958l.344-1.542c.374-1.992.839-5.301 1.344-9.632.65-5.582 1.32-12.405 1.922-19.213 1.214-13.745 2.119-26.987 2.119-29.922Zm-96.01 117.869c.001-.009.005-.019.005-.026.006-.095.005-.156.005-.165 0 .064-.008.128-.01.191ZM240 56.779c0 3.5-.961 17.263-2.161 30.848-.607 6.859-1.287 13.786-1.954 19.502-.563 4.83-1.155 9.176-1.755 11.811l-.255 1.019c-4.293 15.15-14.388 24.757-26.703 29.864-2.673 1.109-5.449 1.991-8.287 2.69 6.793 3.921 11.834 8.77 14.818 14.485 6.281 12.029 2.4 25.477-8.51 37.645l-2.276 2.416c-11.695 11.846-22.452 17.77-32.443 18.784-10.201 1.034-18.499-3.15-24.87-9.069-6.278-5.833-10.959-13.572-14.344-20.522a122.864 122.864 0 0 1-3.26-7.32 122.506 122.506 0 0 1-3.26 7.32c-3.385 6.949-8.065 14.689-14.344 20.522-6.371 5.919-14.669 10.103-24.87 9.069-9.366-.95-19.406-6.217-30.26-16.632l-2.183-2.152c-12.623-12.782-17.486-27.229-10.786-40.061 2.983-5.713 8.02-10.565 14.807-14.485-2.835-.699-5.61-1.582-8.281-2.69-12.313-5.108-22.406-14.715-26.698-29.864v-.005c-.689-2.429-1.373-7.313-2.016-12.825-.666-5.716-1.342-12.644-1.948-19.502-1.2-13.585-2.16-27.348-2.161-30.848 0-8.71 1.92-15.586 6.052-20.304 4.262-4.864 10.089-6.558 15.865-6.472 11.06.164 23.75 6.784 32.849 13.528l2.395 1.826c12.002 9.41 24.102 22.66 34.396 35.876C115.66 91.634 122.792 102.21 128 111.17c5.208-8.959 12.34-19.536 20.443-29.937C159.423 67.137 172.456 53 185.234 43.53l1.75-1.262c8.932-6.285 20.73-12.111 31.099-12.266 5.776-.086 11.603 1.602 15.865 6.466C238.082 41.19 240 48.066 240 56.78Z"/>
    </symbol>

    <symbol id="email" viewBox="0 0 256 256">
        <path fill="currentColor" d="M225.88 30.12a13.83 13.83 0 0 0-13.7-3.58h-.11L20.14 84.77A14 14 0 0 0 18 110.85l85.56 41.64L145.12 238a13.87 13.87 0 0 0 12.61 8c.4 0 .81 0 1.21-.05a13.9 13.9 0 0 0 12.29-10.09l58.2-191.93v-.11a13.83 13.83 0 0 0-3.55-13.7m-8 10.4l-58.15 191.91v.11a2 2 0 0 1-3.76.26l-40.68-83.58l49-49a6 6 0 1 0-8.49-8.49l-49 49L23.15 100a2 2 0 0 1 .31-3.74h.11l191.91-58.18a1.94 1.94 0 0 1 1.92.52a2 2 0 0 1 .52 1.92Z" />
    </symbol>

    <symbol id="instagram" viewBox="0 0 256 256">
        <path fill="currentColor" d="M128 82a46 46 0 1 0 46 46a46.06 46.06 0 0 0-46-46m0 80a34 34 0 1 1 34-34a34 34 0 0 1-34 34m48-136H80a54.06 54.06 0 0 0-54 54v96a54.06 54.06 0 0 0 54 54h96a54.06 54.06 0 0 0 54-54V80a54.06 54.06 0 0 0-54-54m42 150a42 42 0 0 1-42 42H80a42 42 0 0 1-42-42V80a42 42 0 0 1 42-42h96a42 42 0 0 1 42 42ZM190 76a10 10 0 1 1-10-10a10 10 0 0 1 10 10" />
    </symbol>

    <symbol id="twitter" viewBox="0 0 256 256">
        <path fill="currentColor" d="m213.06 212.78l-63.42-99.66L212.44 44a6 6 0 1 0-8.88-8L143 102.62l-41.9-65.84A6 6 0 0 0 96 34H48a6 6 0 0 0-5.06 9.22l63.42 99.66L43.56 212a6 6 0 0 0 8.88 8L113 153.38l41.9 65.84A6 6 0 0 0 160 222h48a6 6 0 0 0 5.06-9.22M163.29 210L58.93 46h33.78l104.36 164Z" />
    </symbol>

    <symbol id="orcid" viewBox="0 0 256 256">
        <path fill="currentColor" d="M230.667 128.666a102.003 102.003 0 0 1-121.9 100.041A102.003 102.003 0 0 1 34.431 89.633a102 102 0 0 1 94.236-62.966 102.118 102.118 0 0 1 102 101.999Zm-12 0a90.002 90.002 0 0 0-153.64-63.64 90 90 0 0 0 63.64 153.64 90.1 90.1 0 0 0 90-90Z"/>
        <path fill="currentColor" d="M90.143 64a8.143 8.143 0 1 0 0 16.286 8.143 8.143 0 0 0 0-16.286ZM82 88.428V178h16.286V88.428H82Zm32.571 0V178h36.643c24.64 0 44.786-20.146 44.786-44.786s-20.146-44.786-44.786-44.786h-36.643Zm16.286 16.286h20.357c15.83 0 28.5 12.67 28.5 28.5s-12.67 28.5-28.5 28.5h-20.357v-57Z"/>
    </symbol>


    <symbol id="ph--link-light" viewBox="0 0 256 256">
        <path fill="currentColor" d="M238 88.18a52.42 52.42 0 0 1-15.4 35.66l-34.75 34.75A52.28 52.28 0 0 1 150.62 174h-.05A52.63 52.63 0 0 1 98 119.9a6 6 0 0 1 6-5.84h.17a6 6 0 0 1 5.83 6.16A40.62 40.62 0 0 0 150.58 162a40.4 40.4 0 0 0 28.73-11.9l34.75-34.74a40.63 40.63 0 0 0-57.43-57.46l-11 11a6 6 0 0 1-8.49-8.49l11-11a52.62 52.62 0 0 1 74.43 0A52.83 52.83 0 0 1 238 88.18m-127.62 98.9l-11 11A40.36 40.36 0 0 1 70.6 210a40.63 40.63 0 0 1-28.7-69.36l34.72-34.74A40.63 40.63 0 0 1 146 135.77a6 6 0 0 0 5.83 6.16h.17a6 6 0 0 0 6-5.84a52.63 52.63 0 0 0-89.86-38.67l-34.76 34.74A52.63 52.63 0 0 0 70.56 222a52.26 52.26 0 0 0 37.22-15.42l11-11a6 6 0 1 0-8.49-8.48Z" />
    </symbol>

    <symbol id="ph--magnifying-glass-light" viewBox="0 0 256 256">
        <path fill="currentColor" d="m228.24 219.76l-51.38-51.38a86.15 86.15 0 1 0-8.48 8.48l51.38 51.38a6 6 0 0 0 8.48-8.48M38 112a74 74 0 1 1 74 74a74.09 74.09 0 0 1-74-74" />
    </symbol>

    <symbol id="ph--x-circle-light" viewBox="0 0 256 256">
        <path fill="currentColor" d="M164.24 100.24L136.48 128l27.76 27.76a6 6 0 1 1-8.48 8.48L128 136.48l-27.76 27.76a6 6 0 0 1-8.48-8.48L119.52 128l-27.76-27.76a6 6 0 0 1 8.48-8.48L128 119.52l27.76-27.76a6 6 0 0 1 8.48 8.48M230 128A102 102 0 1 1 128 26a102.12 102.12 0 0 1 102 102m-12 0a90 90 0 1 0-90 90a90.1 90.1 0 0 0 90-90" />
    </symbol>

    <symbol id="magnifying-glass-circle" viewBox="0 0 256 256">
        <path fill="currentColor" d="M230.667 128.667a102 102 0 1 1-102-102 102.122 102.122 0 0 1 102 102Zm-12 0a90.003 90.003 0 0 0-107.558-88.271 90 90 0 0 0 17.558 178.271 90.104 90.104 0 0 0 90-90Z"/>
        <path fill="currentColor" d="m179.577 171.197-23.424-23.433a45.437 45.437 0 0 0-68.178-59.79 45.434 45.434 0 0 0 27.677 77.346 45.436 45.436 0 0 0 32.115-9.171l23.445 23.448a5.933 5.933 0 0 0 6.461 1.285 5.938 5.938 0 0 0 3.209-3.209 5.926 5.926 0 0 0-1.285-6.461l-.02-.015Zm-92.973-51.054a33.54 33.54 0 0 1 57.258-23.716 33.54 33.54 0 0 1-23.717 57.255 33.573 33.573 0 0 1-33.54-33.539Z"/>
    </symbol>

    <symbol id="ph--quotes-light" viewBox="0 0 256 256">
        <path fill="currentColor" d="M100 58H40a14 14 0 0 0-14 14v64a14 14 0 0 0 14 14h62v10a34 34 0 0 1-34 34a6 6 0 0 0 0 12a46.06 46.06 0 0 0 46-46V72a14 14 0 0 0-14-14m2 80H40a2 2 0 0 1-2-2V72a2 2 0 0 1 2-2h60a2 2 0 0 1 2 2Zm114-80h-60a14 14 0 0 0-14 14v64a14 14 0 0 0 14 14h62v10a34 34 0 0 1-34 34a6 6 0 0 0 0 12a46.06 46.06 0 0 0 46-46V72a14 14 0 0 0-14-14m2 80h-62a2 2 0 0 1-2-2V72a2 2 0 0 1 2-2h60a2 2 0 0 1 2 2Z" />
    </symbol>

    <symbol id="ph--quotes-fill" viewBox="0 0 256 256">
        <path fill="currentColor" d="M116 72v88a48.05 48.05 0 0 1-48 48a8 8 0 0 1 0-16a32 32 0 0 0 32-32v-8H40a16 16 0 0 1-16-16V72a16 16 0 0 1 16-16h60a16 16 0 0 1 16 16m100-16h-60a16 16 0 0 0-16 16v64a16 16 0 0 0 16 16h60v8a32 32 0 0 1-32 32a8 8 0 0 0 0 16a48.05 48.05 0 0 0 48-48V72a16 16 0 0 0-16-16" />
    </symbol>

    <symbol id="ph--plus-light" viewBox="0 0 256 256">
        <path fill="currentColor" d="M222 128a6 6 0 0 1-6 6h-82v82a6 6 0 0 1-12 0v-82H40a6 6 0 0 1 0-12h82V40a6 6 0 0 1 12 0v82h82a6 6 0 0 1 6 6" />
    </symbol>

    <symbol id="ph--plus" viewBox="0 0 256 256">
        <path fill="currentColor" d="M224 128a8 8 0 0 1-8 8h-80v80a8 8 0 0 1-16 0v-80H40a8 8 0 0 1 0-16h80V40a8 8 0 0 1 16 0v80h80a8 8 0 0 1 8 8" />
    </symbol>

    <symbol id="ph--plus-bold" viewBox="0 0 256 256">
        <path fill="currentColor" d="M228 128a12 12 0 0 1-12 12h-76v76a12 12 0 0 1-24 0v-76H40a12 12 0 0 1 0-24h76V40a12 12 0 0 1 24 0v76h76a12 12 0 0 1 12 12" />
    </symbol>

    <symbol id="ph--minus-light" viewBox="0 0 256 256">
        <path fill="currentColor" d="M222 128a6 6 0 0 1-6 6H40a6 6 0 0 1 0-12h176a6 6 0 0 1 6 6" />
    </symbol>

    <symbol id="ph--minus" viewBox="0 0 256 256">
        <path fill="currentColor" d="M224 128a8 8 0 0 1-8 8H40a8 8 0 0 1 0-16h176a8 8 0 0 1 8 8" />
    </symbol>

    <symbol id="ph--minus-bold" viewBox="0 0 256 256">
        <path fill="currentColor" d="M228 128a12 12 0 0 1-12 12H40a12 12 0 0 1 0-24h176a12 12 0 0 1 12 12" />
    </symbol>

    <symbol id="ph--arrow-up-right-light" viewBox="0 0 256 256">
        <path fill="currentColor" d="M198 64v104a6 6 0 0 1-12 0V78.48L68.24 196.24a6 6 0 0 1-8.48-8.48L177.52 70H88a6 6 0 0 1 0-12h104a6 6 0 0 1 6 6" />
    </symbol>

    <symbol id="ph--arrow-up-right" viewBox="0 0 256 256">
        <path fill="currentColor" d="M200 64v104a8 8 0 0 1-16 0V83.31L69.66 197.66a8 8 0 0 1-11.32-11.32L172.69 72H88a8 8 0 0 1 0-16h104a8 8 0 0 1 8 8" />
    </symbol>

    <symbol id="ph--arrow-up-right-bold" viewBox="0 0 256 256">
        <path fill="currentColor" d="M204 64v104a12 12 0 0 1-24 0V93L72.49 200.49a12 12 0 0 1-17-17L163 76H88a12 12 0 0 1 0-24h104a12 12 0 0 1 12 12" />
    </symbol>

    <symbol id="ph--arrow-bend-right-up-light" viewBox="0 0 256 256">
        <path fill="currentColor" d="M204.24 84.24a6 6 0 0 1-8.48 0L158 46.49V128A102.12 102.12 0 0 1 56 230a6 6 0 0 1 0-12a90.1 90.1 0 0 0 90-90V46.49l-37.76 37.75a6 6 0 0 1-8.48-8.48l48-48a6 6 0 0 1 8.48 0l48 48a6 6 0 0 1 0 8.48" />
    </symbol>

    <symbol id="ph--arrow-bend-right-up" viewBox="0 0 256 256">
        <path fill="currentColor" d="M205.66 85.66a8 8 0 0 1-11.32 0L160 51.31V128A104.11 104.11 0 0 1 56 232a8 8 0 0 1 0-16a88.1 88.1 0 0 0 88-88V51.31l-34.34 34.35a8 8 0 0 1-11.32-11.32l48-48a8 8 0 0 1 11.32 0l48 48a8 8 0 0 1 0 11.32" />
    </symbol>

    <symbol id="ph--arrow-bend-right-up-bold" viewBox="0 0 256 256">
        <path fill="currentColor" d="M208.49 88.49a12 12 0 0 1-17 0L164 61v67A108.12 108.12 0 0 1 56 236a12 12 0 0 1 0-24a84.09 84.09 0 0 0 84-84V61l-27.51 27.49a12 12 0 0 1-17-17l48-48a12 12 0 0 1 17 0l48 48a12 12 0 0 1 0 17" />
    </symbol>

    <symbol id="ph--arrow-bend-right-down-light" viewBox="0 0 256 256">
        <path fill="currentColor" d="m204.24 180.24l-48 48a6 6 0 0 1-8.48 0l-48-48a6 6 0 0 1 8.48-8.48L146 209.51V128a90.1 90.1 0 0 0-90-90a6 6 0 0 1 0-12a102.12 102.12 0 0 1 102 102v81.51l37.76-37.75a6 6 0 0 1 8.48 8.48" />
    </symbol>

    <symbol id="ph--arrow-bend-right-down" viewBox="0 0 256 256">
        <path fill="currentColor" d="m205.66 181.66l-48 48a8 8 0 0 1-11.32 0l-48-48a8 8 0 0 1 11.32-11.32L144 204.69V128a88.1 88.1 0 0 0-88-88a8 8 0 0 1 0-16a104.11 104.11 0 0 1 104 104v76.69l34.34-34.35a8 8 0 0 1 11.32 11.32" />
    </symbol>

    <symbol id="ph--arrow-bend-right-down-bold" viewBox="0 0 256 256">
        <path fill="currentColor" d="m208.49 184.49l-48 48a12 12 0 0 1-17 0l-48-48a12 12 0 0 1 17-17L140 195v-67a84.09 84.09 0 0 0-84-84a12 12 0 0 1 0-24a108.12 108.12 0 0 1 108 108v67l27.51-27.52a12 12 0 0 1 17 17Z" />
    </symbol>

    <symbol id="ph--list-light" viewBox="0 0 256 256">
        <path fill="currentColor" d="M222 128a6 6 0 0 1-6 6H40a6 6 0 0 1 0-12h176a6 6 0 0 1 6 6M40 70h176a6 6 0 0 0 0-12H40a6 6 0 0 0 0 12m176 116H40a6 6 0 0 0 0 12h176a6 6 0 0 0 0-12" />
    </symbol>

    <symbol id="ph--list" viewBox="0 0 256 256">
        <path fill="currentColor" d="M224 128a8 8 0 0 1-8 8H40a8 8 0 0 1 0-16h176a8 8 0 0 1 8 8M40 72h176a8 8 0 0 0 0-16H40a8 8 0 0 0 0 16m176 112H40a8 8 0 0 0 0 16h176a8 8 0 0 0 0-16" />
    </symbol>

    <symbol id="ph--list-bold" viewBox="0 0 256 256">
        <path fill="currentColor" d="M228 128a12 12 0 0 1-12 12H40a12 12 0 0 1 0-24h176a12 12 0 0 1 12 12M40 76h176a12 12 0 0 0 0-24H40a12 12 0 0 0 0 24m176 104H40a12 12 0 0 0 0 24h176a12 12 0 0 0 0-24" />
    </symbol>

    <symbol id="burger-menu-circle" viewBox="0 0 256 256">
        <path fill="currentColor" d="M231.9 129.8a102 102 0 1 1-102-102 102 102 0 0 1 102 102Zm-12 0a90 90 0 1 0-90 90 90 90 0 0 0 90-90Z"/>
        <path fill="currentColor" d="M182.3 128.7a6.26 6.26 0 0 1-6.26 6.26h-91.85a6.26 6.26 0 1 1 0-12.52h91.85a6.26 6.26 0 0 1 6.26 6.26ZM84.2 101.6h91.85a6.26 6.26 0 1 0 0-12.52H84.2a6.26 6.26 0 1 0 0 12.52Zm91.85 54.27H84.2a6.26 6.26 0 1 0 0 12.52h91.85a6.26 6.26 0 1 0 0-12.52Z"/>
    </symbol>


</svg>